<?xml version="1.0" standalone="no"?>
<!DOCTYPE svg PUBLIC "-//W3C//DTD SVG 20010904//EN"
 "http://www.w3.org/TR/2001/REC-SVG-20010904/DTD/svg10.dtd">
<svg version="1.0" xmlns="http://www.w3.org/2000/svg"
 width="960.000000pt" height="960.000000pt" viewBox="0 0 960.000000 960.000000"
 preserveAspectRatio="xMidYMid meet">
<metadata>
Created by potrace 1.11, written by Peter Selinger 2001-2013
</metadata>
<g transform="translate(0.000000,960.000000) scale(0.100000,-0.100000)"
fill="#000000" stroke="none">
<path d="M0 4800 l0 -4800 4800 0 4800 0 0 4800 0 4800 -4800 0 -4800 0 0
-4800z m5320 4385 c632 -63 1263 -215 1939 -469 364 -137 833 -344 890 -393
52 -44 87 -113 100 -194 6 -40 11 -873 13 -2229 3 -2046 2 -2171 -15 -2275
-46 -281 -119 -507 -241 -750 -145 -287 -304 -502 -581 -783 -595 -607 -1329
-1118 -2271 -1583 -121 -60 -245 -114 -274 -120 -30 -6 -83 -9 -119 -6 -61 4
-91 17 -376 161 -981 493 -1717 1016 -2264 1609 -264 286 -385 456 -516 722
-115 234 -180 435 -224 695 -40 236 -43 327 -31 1244 8 620 8 1204 0 2027 -9
987 -8 1167 4 1236 26 152 108 260 252 335 131 69 628 265 958 380 698 241
1309 372 1931 412 132 8 678 -4 825 -19z"/>
<path d="M4605 8659 c-638 -30 -1385 -203 -2185 -505 -421 -158 -455 -176
-495 -258 l-24 -51 -2 -1985 c-1 -1787 1 -1997 16 -2105 33 -249 95 -458 194
-660 110 -223 225 -377 471 -629 472 -483 1015 -878 1775 -1291 313 -170 388
-205 437 -205 62 0 82 8 311 127 844 439 1488 903 1966 1416 366 392 550 717
617 1089 13 72 15 365 15 2173 0 1323 -3 2100 -9 2116 -16 41 -58 84 -99 102
-53 23 -655 247 -783 292 -169 59 -490 152 -704 206 -554 137 -1033 191 -1501
168z m441 -1303 c104 -19 172 -39 280 -82 95 -39 266 -122 325 -160 43 -27 35
-33 108 89 l52 87 113 0 113 0 7 -202 c3 -112 9 -418 12 -680 l7 -478 -116 0
-116 0 -26 88 c-159 531 -300 779 -541 955 -70 50 -183 102 -279 128 -108 29
-339 32 -435 6 -118 -31 -207 -83 -301 -177 -140 -138 -189 -269 -176 -470 13
-198 65 -323 185 -451 126 -135 294 -229 647 -363 420 -161 612 -246 786 -349
228 -135 381 -299 464 -497 117 -277 109 -669 -20 -947 -175 -378 -574 -660
-1030 -728 -139 -20 -391 -20 -530 0 -211 32 -426 100 -634 202 -106 52 -135
62 -142 52 -5 -8 -32 -53 -60 -101 l-51 -88 -119 0 -119 0 0 63 c0 83 -28
1037 -35 1205 l-6 132 118 0 118 0 43 -135 c51 -163 126 -343 186 -448 182
-319 442 -539 733 -619 109 -30 450 -33 558 -5 288 76 453 263 494 561 15 105
14 167 -4 271 -39 223 -166 418 -352 542 -96 64 -141 83 -529 231 -343 131
-456 178 -578 239 -239 120 -425 281 -531 461 -141 240 -176 630 -82 907 138
405 536 709 1012 774 93 13 350 6 451 -13z m-1636 -1160 c0 -18 3 -47 6 -63 6
-29 4 -30 -53 -51 -208 -76 -361 -303 -453 -669 l-11 -43 -64 0 -65 0 0 138
c0 76 3 261 7 410 l6 272 64 0 64 0 31 -50 c17 -27 35 -50 40 -50 5 0 43 17
86 39 107 53 246 97 315 100 24 1 27 -2 27 -33z m2915 15 c87 -22 205 -68 271
-106 l43 -25 31 55 31 55 64 0 63 0 6 -82 c3 -46 7 -230 10 -410 l4 -328 -67
0 -68 0 -13 58 c-19 84 -76 245 -117 326 -91 183 -218 302 -360 338 l-43 10 0
64 0 64 33 0 c17 0 68 -9 112 -19z m-657 -149 l25 -82 -55 -57 c-75 -79 -122
-154 -168 -265 -22 -51 -43 -92 -47 -91 -38 11 -283 117 -283 123 0 4 22 41
48 81 59 91 146 186 226 247 68 52 206 134 220 129 5 -2 20 -40 34 -85z
m-1038 -1190 c0 -126 -78 -374 -161 -514 -89 -152 -238 -301 -371 -373 l-51
-28 -18 24 c-30 40 -109 185 -109 200 0 8 18 33 41 54 94 92 196 272 239 425
28 100 50 249 50 336 l0 71 190 -76 190 -76 0 -43z m510 -158 c101 -50 125
-67 201 -143 73 -72 94 -101 132 -181 26 -54 52 -128 61 -172 17 -80 22 -233
9 -241 -17 -10 -152 90 -233 172 -128 129 -212 268 -270 448 -39 120 -47 173
-29 173 8 0 66 -25 129 -56z m-2316 -223 c27 -76 127 -221 196 -285 72 -66
141 -108 228 -137 l62 -21 0 -79 c0 -93 3 -92 -110 -48 -210 80 -380 254 -493
502 l-26 57 57 30 c31 16 59 29 63 30 3 0 13 -22 23 -49z m4102 -1 c11 0 0
-32 -41 -112 -108 -214 -224 -338 -401 -426 -66 -33 -192 -77 -200 -69 -3 2 6
42 19 88 23 79 26 83 61 95 176 61 338 220 421 411 l27 62 55 -25 c31 -13 57
-24 59 -24z"/>
</g>
</svg>
