<?xml version="1.0" encoding="utf-8"?>
<!-- Generator: Adobe Illustrator 20.0.0, SVG Export Plug-In . SVG Version: 6.00 Build 0)  -->
<svg version="1.1" id="Layer_1" xmlns="http://www.w3.org/2000/svg" xmlns:xlink="http://www.w3.org/1999/xlink" x="0px" y="0px"
	 viewBox="0 0 96 96" style="enable-background:new 0 0 96 96;" xml:space="preserve">
<style type="text/css">
	.st0{fill:#FFFFFF;}
</style>
<path class="st0" d="M87.9,34.3h-5.9c0.9,6-2.7,9.1-7.4,10.5c-5.5,1.7-11.2,3.1-17,3.7c-12,1.4-24,0.6-35.1-4.8
	c-8.2-4-8.8-11-0.8-15.4c13.8-7.7,28.6-8.1,43.5-3.8c2,0.6,4.8,3.5,4.6,4.9c-0.3,2-2.7,4.7-4.8,5.4c-8.9,3-18,3.1-27,0.6
	c-1-0.3-1.9-1-2.9-1.6c0-0.4,0-0.8,0-1.1c4.6-0.7,9.2-1.5,13.9-2.2V24c-6.2,1.4-11.8,2.2-17,4c-4.5,1.7-5.1,6.3-1.5,9.6
	c1.6,1.5,3.8,2.7,6,3.4c10,3,20.1,2.7,30-0.3c6.4-2,9.7-6,9.8-11.2c0-4.8-3.3-9.2-9.4-11c-15.9-4.5-31.7-3.7-46.6,3.8
	c-6.7,3.4-10.3,9.1-10,17c0.3,6.3,0,12.7,0,19c0,11.3,2.9,15.7,13.8,19.6C35,82,46.6,83.2,58.2,81.3c7.3-1.1,14.7-3.2,21.3-6.3
	c3.5-1.6,7.6-6.2,8-9.9C88.6,55,87.9,44.7,87.9,34.3z M76.3,70V58.2c-2.2-0.1-3.9-0.2-6.3-0.3c0,3.9-0.2,7,0.1,10.1
	c0.4,4.2-1,6.3-5.8,5.8c-0.2-2-0.3-4.1-0.5-6.6h-5.5c-0.2,2.5-0.3,5-0.5,7.9c-1.7,0.2-3.3,0.4-5.5,0.7V61.3h-6.1v14.5
	c-2.1-0.1-3.8-0.2-5.8-0.3c-0.2-2.9-0.3-5.5-0.5-8.2h-5.5c-0.2,2.2-0.3,4.4-0.5,6.7c-4.3,0.4-6.3-1-5.8-5.5
	c0.3-3.3,0.1-6.6,0.1-10.1h-6v11.6c-6.7-3.3-6.9-4.2-5.7-22.1c21.6,9.9,43.3,9.5,65.1,1C83.9,59.1,82.4,66.3,76.3,70z"/>
<path class="st0" d="M87.9,34.3h-5.9c0.9,6-2.7,9.1-7.4,10.5c-5.5,1.7-11.2,3.1-17,3.7c-12,1.4-24,0.6-35.1-4.8
	c-8.2-4-8.8-11-0.8-15.4c13.8-7.7,28.6-8.1,43.5-3.8c2,0.6,4.8,3.5,4.6,4.9c-0.3,2-2.7,4.7-4.8,5.4c-8.9,3-18,3.1-27,0.6
	c-1-0.3-1.9-1-2.9-1.6c0-0.4,0-0.8,0-1.1c4.6-0.7,9.2-1.5,13.9-2.2V24c-6.2,1.4-11.8,2.2-17,4c-4.5,1.7-5.1,6.3-1.5,9.6
	c1.6,1.5,3.8,2.7,6,3.4c10,3,20.1,2.7,30-0.3c6.4-2,9.7-6,9.8-11.2c0-4.8-3.3-9.2-9.4-11c-15.9-4.5-31.7-3.7-46.6,3.8
	c-6.7,3.4-10.3,9.1-10,17c0.3,6.3,0,12.7,0,19c0,11.3,2.9,15.7,13.8,19.6C35,82,46.6,83.2,58.2,81.3c7.3-1.1,14.7-3.2,21.3-6.3
	c3.5-1.6,7.6-6.2,8-9.9C88.6,55,87.9,44.7,87.9,34.3z M76.3,70V58.2c-2.2-0.1-3.9-0.2-6.3-0.3c0,3.9-0.2,7,0.1,10.1
	c0.4,4.2-1,6.3-5.8,5.8c-0.2-2-0.3-4.1-0.5-6.6h-5.5c-0.2,2.5-0.3,5-0.5,7.9c-1.7,0.2-3.3,0.4-5.5,0.7V61.3h-6.1v14.5
	c-2.1-0.1-3.8-0.2-5.8-0.3c-0.2-2.9-0.3-5.5-0.5-8.2h-5.5c-0.2,2.2-0.3,4.4-0.5,6.7c-4.3,0.4-6.3-1-5.8-5.5
	c0.3-3.3,0.1-6.6,0.1-10.1h-6v11.6c-6.7-3.3-6.9-4.2-5.7-22.1c21.6,9.9,43.3,9.5,65.1,1C83.9,59.1,82.4,66.3,76.3,70z"/>
</svg>
