<?xml version="1.0" encoding="utf-8"?>
<!-- Generator: Adobe Illustrator 20.0.0, SVG Export Plug-In . SVG Version: 6.00 Build 0)  -->
<svg version="1.1" id="Layer_1" xmlns="http://www.w3.org/2000/svg" xmlns:xlink="http://www.w3.org/1999/xlink" x="0px" y="0px"
	 viewBox="0 0 96 96" enable-background="new 0 0 96 96" xml:space="preserve">
<g>
	<path d="M2,59c0-6.8-0.1-13.6,0-20.5c0.4-14,12.8-26.1,26.8-26.6c2.7-0.1,3.5,0.6,3.3,3.2c-0.2,2.1-0.1,4.3,0,6.5
		c0.1,2.7,0,4.2-3.6,4.6c-5.6,0.7-10.8,12-8.3,16.8c0.7,1.4,2,0.8,3.1,0.8c5.2,0.1,10.3,0.1,15.5,0c2.3-0.1,3.6,0.2,3.5,3.1
		c-0.2,11.3-0.1,22.6,0,33.9c0,2.4-0.7,3.1-3.1,3c-11.3-0.1-22.6-0.2-33.9,0C2,84.1,2,82.8,2,80.6C2.1,73.4,2,66.2,2,59z"/>
	<path d="M54,59.5c0-7-0.1-14,0-21C54.4,24.6,66.9,12.4,80.9,12c2.8-0.1,3.5,0.8,3.2,3.3c-0.2,1.5-0.1,3,0,4.5
		c0.1,3.4,0.8,6.3-4.6,7c-5.1,0.6-9,10.7-7.4,15.9c0.6,2.1,2.1,1.2,3.2,1.3c5.2,0.1,10.3,0.1,15.5,0c2.4-0.1,3.5,0.4,3.4,3.2
		c-0.2,11.3-0.2,22.6,0,33.9c0,2.5-0.9,3-3.1,3c-11.5-0.1-22.8-0.1-34.1,0c-2.4,0-3.1-0.7-3-3.1C54,73.8,54,66.7,54,59.5z"/>
</g>
</svg>
