<?xml version="1.0" encoding="utf-8"?>
<!-- Generator: Adobe Illustrator 20.0.0, SVG Export Plug-In . SVG Version: 6.00 Build 0)  -->
<svg version="1.1" id="Layer_1" xmlns="http://www.w3.org/2000/svg" xmlns:xlink="http://www.w3.org/1999/xlink" x="0px" y="0px"
	 viewBox="0 0 96 96" style="enable-background:new 0 0 96 96;" xml:space="preserve">
<style type="text/css">
	.st0{fill:#FFFFFF;}
</style>
<g>
	<path class="st0" d="M81.9,34.3c-0.3-6.3-3.2-10.8-8.4-13.8c-6.5-3.7-13-7.4-19.9-10.2c-3.2-1.3-7.9-1.5-11-0.2
		c-7.8,3.3-15.1,7.5-22.5,11.7c-4.1,2.4-6.2,6.3-6.5,11.2C13,43.1,12.2,53,11.7,63c-0.2,4.9,0,9.8,0,15.3h12.2v8.5h48v-8.8h12.5
		C83.5,63.1,82.6,48.7,81.9,34.3z M23.4,71.8h-5.8c0.1-14.9-0.6-29.8,3.8-44.2c0.7,0.1,1.3,0.2,2,0.3V71.8z M41.1,16.3h14.7
		c-3.2,4.2-5.3,7-7.9,10.5c-2.5-3.2-4.8-6.1-7.1-9C40.8,17.4,40.9,16.8,41.1,16.3z M65.7,80.7h-36v-30c0-7.7,0.3-15.3-0.1-23
		c-0.2-4.4,1.4-6.5,5.9-7.2V36c4.5-3.3,8.1-6,12.2-8.9c3.6,2.7,7.3,5.4,11.8,8.7V20.5c4.7,0.7,6.4,2.6,6.3,7
		C65.5,45.2,65.7,62.8,65.7,80.7z M72,72V27.8c0.3-0.2,0.7-0.3,1-0.5c0.9,1.8,2.4,3.5,2.5,5.3c1.1,12.9,1.9,25.7,2.9,39.1
		C75.7,71.9,74,71.9,72,72z"/>
	<path class="st0" d="M50.4,35.7c-0.3,1.2-1.8,2.1-2.8,3.2c-0.9-1-2.5-1.9-2.6-2.9c-0.1-1,1.3-2.1,2.5-3.9
		C48.9,33.8,50.6,35,50.4,35.7z"/>
	<path class="st0" d="M50.4,48.3c0.2,0.8-1.5,2-2.8,3.8c-1.2-1.8-2.7-2.9-2.6-3.9c0.1-1,1.6-2,2.5-2.9
		C48.5,46.2,50.1,47.1,50.4,48.3z"/>
	<path class="st0" d="M51.7,59.7c-1.7,1.5-2.8,3.2-3.6,3c-1.2-0.2-2.2-1.7-3.3-2.7c0.9-0.9,1.8-2.5,2.8-2.7
		C48.6,57.2,49.8,58.5,51.7,59.7z"/>
	<path class="st0" d="M47.9,76c-1.4-1.7-2.9-2.7-2.9-3.7c0-1,1.5-2.1,2.3-3.1c1.1,0.9,2.7,1.7,3.1,2.9C50.6,72.8,49.1,74.2,47.9,76z
		"/>
</g>
</svg>
