<?xml version="1.0" encoding="utf-8"?>
<!-- Generator: Adobe Illustrator 20.0.0, SVG Export Plug-In . SVG Version: 6.00 Build 0)  -->
<svg version="1.1" id="Layer_1" xmlns="http://www.w3.org/2000/svg" xmlns:xlink="http://www.w3.org/1999/xlink" x="0px" y="0px"
	 viewBox="0 0 96 96" style="enable-background:new 0 0 96 96;" xml:space="preserve">
<style type="text/css">
	.st0{fill:none;stroke:#FFFFFF;stroke-width:8;stroke-miterlimit:10;}
</style>
<g>
	<path class="st0" d="M21.5,82.8c1.2-6.8,2.2-13.9,3.6-20.9c0.5-2.5-0.2-3.8-1.8-5.3c-4.8-4.5-9.5-9.2-14.2-13.8
		c-1.2-1.2-2.4-2.3-1.8-4.2c0.6-2,2.2-2.3,3.8-2.5c6.7-1,13.3-2.1,20-2.9c2.2-0.3,3.4-1.1,4.4-3c2.6-5.6,5.4-11.1,8.2-16.6
		c1-1.9,1.4-4.4,4.3-4.4c3.1-0.1,3.6,2.6,4.6,4.6c2.8,5.5,5.6,11,8.2,16.6c0.9,1.8,2,2.6,4,2.8c6.8,0.8,13.6,1.9,20.4,3
		c1.5,0.2,3,0.5,3.6,2.3c0.7,1.9-0.4,3.1-1.6,4.3c-4.7,4.6-9.4,9.3-14.2,13.8c-1.7,1.6-2.5,3.1-2,5.7c1.4,6.3,2.3,12.7,3.4,19.1
		c0.3,1.8,0.7,3.6-1,5c-1.9,1.6-3.7,0.4-5.3-0.4c-5.6-2.9-11.2-5.8-16.7-8.9c-2.2-1.3-3.9-1.5-6.3-0.1c-5.8,3.4-11.8,6.4-17.9,9.4
		C23.6,87.9,21.5,86.6,21.5,82.8z"/>
</g>
</svg>
