<?xml version="1.0" encoding="utf-8"?>
<!-- Generator: Adobe Illustrator 20.0.0, SVG Export Plug-In . SVG Version: 6.00 Build 0)  -->
<svg version="1.1" id="Layer_1" xmlns="http://www.w3.org/2000/svg" xmlns:xlink="http://www.w3.org/1999/xlink" x="0px" y="0px"
	 viewBox="0 0 398.6 577.1" style="enable-background:new 0 0 398.6 577.1;" xml:space="preserve">
<style type="text/css">
	.st0{fill:#D64235;}
	.st1{fill:#FFFFFF;}
</style>
<polygon class="st0" points="398.6,507.1 199.3,577.1 0,507.1 0,0 398.6,0 "/>
<g>
	<path id="XMLID_32_" class="st1" d="M288,147.1c0,18,0,36,0,54c0,18.7-7.7,34.1-20.5,47.3c-18.4,19.1-40.5,32.9-64.3,44.2
		c-2.1,1-5.5,1.2-7.6,0.2c-25.8-12.4-50.1-27.2-69-49.3c-11.5-13.5-16.4-28.9-16-46.9c0.7-32.3,0.3-64.7,0-97
		c-0.1-6.8,2.1-10.6,8.4-13.4C145.5,75,172.4,66,201.5,66.6c28.8,0.6,55.6,9.5,81.4,21.5c4,1.9,4.7,5.2,4.7,9.1c0,16.7,0,33.3,0,50
		C287.7,147.1,287.8,147.1,288,147.1z M273.5,154.9c0-17.2-0.1-34.3,0.1-51.5c0-3.1-0.8-4.9-3.8-6c-7.5-2.6-14.9-5.8-22.5-8.2
		c-18.5-5.9-37.2-10-56.9-8.3c-21.3,1.8-41.3,8.2-61,16.2c-3.5,1.4-4.6,3.3-4.6,7c0.1,31,0.2,62,0,92.9
		c-0.1,14.4,3.5,27.1,13.2,38.1c16.5,18.7,37.2,31.5,59.1,42.7c1.2,0.6,3.3,0.5,4.6-0.2c20.6-10.4,40.1-22.4,56-39.5
		c9.2-9.9,16.3-20.9,15.9-35.4C273.2,186.9,273.5,170.9,273.5,154.9z"/>
	<g id="XMLID_13_">
		<g id="XMLID_1_">
			<path id="XMLID_5_" class="st1" d="M257.6,195.3c-0.8,2.2-1.8,4.1-3,6s-2.7,3.5-4.3,4.9c-1.6,1.4-3.5,2.5-5.8,3.3
				c-0.4,0.1-0.7,0.3-1.1,0.4c-0.1,1.8-0.4,3.6-0.8,5.3c2.7-0.7,5.2-1.8,7.5-3.3c4.6-3,8.3-7.9,11.1-14.7L257.6,195.3z M237.3,210.7
				c-3.5,0-6.7-0.8-9.5-2.3c-2.6-1.4-4.8-3.3-6.8-5.7c2,3.6,2.9,7.5,2.9,11.6c0,0.1,0,0.3,0,0.4c3.1,1.1,6.4,1.6,9.8,1.6
				c2,0,3.9-0.1,5.7-0.4c0.5-1.7,0.8-3.5,1-5.3C239.4,210.6,238.3,210.7,237.3,210.7z M217.3,202.4c-2.4-3.6-6-6.4-10.7-8.3
				c-0.9-0.3-1.8-0.7-2.7-1.1c0.3,0.9,0.6,1.7,0.9,2.5c1.7,4.4,4,8.2,6.9,11.2c2.7,2.8,5.8,5,9.2,6.6
				C220.7,209.5,219.6,205.9,217.3,202.4z M217.3,202.4c-2.4-3.6-6-6.4-10.7-8.3c-0.9-0.3-1.8-0.7-2.7-1.1c0.3,0.9,0.6,1.7,0.9,2.5
				c1.7,4.4,4,8.2,6.9,11.2c2.7,2.8,5.8,5,9.2,6.6C220.7,209.5,219.6,205.9,217.3,202.4z M215.5,192.1c-1.1-3.7-1.7-7.8-1.7-12.2
				c0-2.4,0.1-4.6,0.4-6.8c-3.4-1.5-7-2.9-10.6-4.2c-1,3.6-1.4,7.5-1.4,11.7c0,3.1,0.3,6.1,0.8,8.8c1.7,0.6,3.2,1.2,4.7,1.8
				c4.4,1.8,8,4.2,10.6,7.4C217.2,196.7,216.3,194.5,215.5,192.1z M235.2,143.8L235.2,143.8c-4,0-7.7,0.6-11.2,1.9
				c0.2,0.4,0.3,0.7,0.4,1.1c0.5,1.3,0.9,2.6,1.4,3.9c0.4-0.2,0.7-0.4,1.1-0.6c2.6-1.3,5.4-2,8.4-2.1L235.2,143.8z M258.2,145.3
				h-3.9l-2,3.3c-2.5-1.5-5.1-2.7-7.9-3.6c-1.9-0.6-4-1-6.2-1.1l0.1,4.2c1.8,0.3,3.3,0.8,4.8,1.7c2.1,1.2,4,3,5.6,5.2
				c1.4,2,2.6,4.3,3.6,7.1c1,2.8,1.8,5.4,2.3,7.8h4L258.2,145.3z M235.2,143.8L235.2,143.8c-4,0-7.7,0.6-11.2,1.9
				c0.2,0.4,0.3,0.7,0.4,1.1c0.5,1.3,0.9,2.6,1.4,3.9c0.4-0.2,0.7-0.4,1.1-0.6c2.6-1.3,5.4-2,8.4-2.1L235.2,143.8z M221.6,147.8
				c-0.1-0.3-0.2-0.6-0.4-1c-3.6,1.7-6.8,4.1-9.5,7c-3,3.3-5.3,7.1-7,11.7c-0.1,0.2-0.1,0.4-0.2,0.5c0,0,0.1,0,0.1,0
				c3.4,1.2,6.8,2.6,10,4c0.2-1.3,0.5-2.6,0.8-3.8c1.1-4.1,2.6-7.4,4.4-10.1c1-1.4,2.2-2.7,3.4-3.7
				C222.8,150.9,222.2,149.4,221.6,147.8z M235.2,143.8L235.2,143.8c-4,0-7.7,0.6-11.2,1.9c0.2,0.4,0.3,0.7,0.4,1.1
				c0.5,1.3,0.9,2.6,1.4,3.9c0.4-0.2,0.7-0.4,1.1-0.6c2.6-1.3,5.4-2,8.4-2.1L235.2,143.8z"/>
		</g>
		<g id="XMLID_2_">
			<path id="XMLID_3_" class="st1" d="M154.1,145c-2.8,0.9-5.4,2-7.9,3.6l-2-3.3h-3.9l-0.4,24.7h4c0.5-2.4,1.3-5,2.3-7.8
				c1-2.8,2.3-5.2,3.6-7.1c1.6-2.2,3.4-4,5.6-5.2c0.9-0.5,1.9-1,3-1.3c0.1-1.5,0.2-3,0.5-4.5C157.2,144.3,155.6,144.6,154.1,145z
				 M169.8,212.9c-0.5-1.1-1-2.2-1.5-3.4c-2.2,0.8-4.5,1.2-7,1.2c-1,0-2-0.1-3-0.2l0.1,5.2c2,0.4,4.2,0.6,6.5,0.6
				c2.1,0,4.2-0.2,6.2-0.6C170.6,214.7,170.2,213.8,169.8,212.9z M169.8,212.9c-0.5-1.1-1-2.2-1.5-3.4c-2.2,0.8-4.5,1.2-7,1.2
				c-1,0-2-0.1-3-0.2l0.1,5.2c2,0.4,4.2,0.6,6.5,0.6c2.1,0,4.2-0.2,6.2-0.6C170.6,214.7,170.2,213.8,169.8,212.9z M169.8,212.9
				c-0.5-1.1-1-2.2-1.5-3.4c-2.2,0.8-4.5,1.2-7,1.2c-1,0-2-0.1-3-0.2l0.1,5.2c2,0.4,4.2,0.6,6.5,0.6c2.1,0,4.2-0.2,6.2-0.6
				C170.6,214.7,170.2,213.8,169.8,212.9z M169.8,212.9c-0.5-1.1-1-2.2-1.5-3.4c-2.2,0.8-4.5,1.2-7,1.2c-1,0-2-0.1-3-0.2l0.1,5.2
				c2,0.4,4.2,0.6,6.5,0.6c2.1,0,4.2-0.2,6.2-0.6C170.6,214.7,170.2,213.8,169.8,212.9z M169.8,212.9c-0.5-1.1-1-2.2-1.5-3.4
				c-2.2,0.8-4.5,1.2-7,1.2c-1,0-2-0.1-3-0.2l0.1,5.2c2,0.4,4.2,0.6,6.5,0.6c2.1,0,4.2-0.2,6.2-0.6
				C170.6,214.7,170.2,213.8,169.8,212.9z M194,189.3c-3.6-1.3-6.8-2.6-9.7-3.9c-0.3,2.4-0.7,4.6-1.4,6.7c-1.1,3.7-2.7,7-4.8,9.8
				c-2,2.7-4.4,4.8-7.2,6.4c0.5,1.2,1,2.3,1.5,3.4c0.5,1.1,1,2.1,1.6,3.1c0.9-0.3,1.8-0.6,2.7-1c3.8-1.6,7.1-4,10.1-7
				c2.9-3.1,5.2-6.8,6.9-11.2c0.7-1.8,1.3-3.7,1.7-5.7C195,189.6,194.5,189.4,194,189.3z M169.8,212.9c-0.5-1.1-1-2.2-1.5-3.4
				c-2.2,0.8-4.5,1.2-7,1.2c-1,0-2-0.1-3-0.2l0.1,5.2c2,0.4,4.2,0.6,6.5,0.6c2.1,0,4.2-0.2,6.2-0.6
				C170.6,214.7,170.2,213.8,169.8,212.9z M169.8,212.9c-0.5-1.1-1-2.2-1.5-3.4c-2.2,0.8-4.5,1.2-7,1.2c-1,0-2-0.1-3-0.2l0.1,5.2
				c2,0.4,4.2,0.6,6.5,0.6c2.1,0,4.2-0.2,6.2-0.6C170.6,214.7,170.2,213.8,169.8,212.9z M169.8,212.9c-0.5-1.1-1-2.2-1.5-3.4
				c-2.2,0.8-4.5,1.2-7,1.2c-1,0-2-0.1-3-0.2l0.1,5.2c2,0.4,4.2,0.6,6.5,0.6c2.1,0,4.2-0.2,6.2-0.6
				C170.6,214.7,170.2,213.8,169.8,212.9z M169.8,212.9c-0.5-1.1-1-2.2-1.5-3.4c-2.2,0.8-4.5,1.2-7,1.2c-1,0-2-0.1-3-0.2l0.1,5.2
				c2,0.4,4.2,0.6,6.5,0.6c2.1,0,4.2-0.2,6.2-0.6C170.6,214.7,170.2,213.8,169.8,212.9z M169.8,212.9c-0.5-1.1-1-2.2-1.5-3.4
				c-2.2,0.8-4.5,1.2-7,1.2c-1,0-2-0.1-3-0.2l0.1,5.2c2,0.4,4.2,0.6,6.5,0.6c2.1,0,4.2-0.2,6.2-0.6
				C170.6,214.7,170.2,213.8,169.8,212.9z M155.3,209.9c-0.4-0.1-0.8-0.3-1.2-0.4c-2.2-0.8-4.1-1.9-5.8-3.3c-1.6-1.4-3-3.1-4.3-4.9
				s-2.2-3.8-3-6l-3.7,1.8c2.8,6.9,6.5,11.8,11.1,14.7c2.1,1.4,4.5,2.4,7,3.1L155.3,209.9z M169.8,212.9c-0.5-1.1-1-2.2-1.5-3.4
				c-2.2,0.8-4.5,1.2-7,1.2c-1,0-2-0.1-3-0.2l0.1,5.2c2,0.4,4.2,0.6,6.5,0.6c2.1,0,4.2-0.2,6.2-0.6
				C170.6,214.7,170.2,213.8,169.8,212.9z M193.8,165.5c-0.1-0.2-0.2-0.5-0.3-0.7c-0.7-0.3-1.4-0.7-2.1-1c-4.6-2.2-8.2-5-10.6-8.4
				c-1.7-2.4-2.8-5.2-3.3-8.4c-0.4-0.2-0.8-0.4-1.2-0.6c-4-1.8-8.3-2.6-12.9-2.6c-0.5,0-1,0-1.4,0c-0.3,1.4-0.5,2.8-0.5,4.2
				c0.5,0,0.9-0.1,1.4-0.1c3.1,0,6.1,0.7,8.8,2.1c2.7,1.4,5.1,3.5,7,6.2c1.9,2.6,3.4,6,4.4,10.1c1.1,4.1,1.6,8.6,1.6,13.6
				c0,0.8,0,1.6-0.1,2.3c3,1.3,6.5,2.7,10.4,4.2c0.3,0.1,0.6,0.2,0.9,0.3c0.3-2,0.4-4,0.4-6.2C196.4,175.1,195.5,170.1,193.8,165.5z
				 M186.8,153.9c-1.7-1.9-3.6-3.5-5.7-4.9c0.5,1.7,1.2,3.3,2.2,4.7c1.9,2.7,4.7,5,8.2,6.9C190.2,158.1,188.6,155.9,186.8,153.9z"/>
		</g>
	</g>
	<g id="XMLID_4_">
		<path id="XMLID_10_" class="st1" d="M199.5,180.1c-0.5-0.7-1-1.4-1.5-2.1c0.6,1.1,1.3,2.2,2.1,3.2c0.2,0.3,0.4,0.5,0.6,0.8
			C200.3,181.4,199.9,180.7,199.5,180.1z M199.5,180.1c-0.5-0.7-1-1.4-1.5-2.1c0.6,1.1,1.3,2.2,2.1,3.2c0.2,0.3,0.4,0.5,0.6,0.8
			C200.3,181.4,199.9,180.7,199.5,180.1z M199.5,180.1c-0.5-0.7-1-1.4-1.5-2.1c0.6,1.1,1.3,2.2,2.1,3.2c0.2,0.3,0.4,0.5,0.6,0.8
			C200.3,181.4,199.9,180.7,199.5,180.1z M199.5,180.1c-0.5-0.7-1-1.4-1.5-2.1c0.6,1.1,1.3,2.2,2.1,3.2c0.2,0.3,0.4,0.5,0.6,0.8
			C200.3,181.4,199.9,180.7,199.5,180.1z M199.5,180.1c-0.5-0.7-1-1.4-1.5-2.1c0.6,1.1,1.3,2.2,2.1,3.2c0.2,0.3,0.4,0.5,0.6,0.8
			C200.3,181.4,199.9,180.7,199.5,180.1z M199.5,180.1c-0.5-0.7-1-1.4-1.5-2.1c0.6,1.1,1.3,2.2,2.1,3.2c0.2,0.3,0.4,0.5,0.6,0.8
			C200.3,181.4,199.9,180.7,199.5,180.1z M199.5,180.1c-0.5-0.7-1-1.4-1.5-2.1c0.6,1.1,1.3,2.2,2.1,3.2c0.2,0.3,0.4,0.5,0.6,0.8
			C200.3,181.4,199.9,180.7,199.5,180.1z M199.5,180.1c-0.5-0.7-1-1.4-1.5-2.1c0.6,1.1,1.3,2.2,2.1,3.2c0.2,0.3,0.4,0.5,0.6,0.8
			C200.3,181.4,199.9,180.7,199.5,180.1z M199.5,180.1c-0.5-0.7-1-1.4-1.5-2.1c0.6,1.1,1.3,2.2,2.1,3.2c0.2,0.3,0.4,0.5,0.6,0.8
			C200.3,181.4,199.9,180.7,199.5,180.1z M199.5,180.1c-0.5-0.7-1-1.4-1.5-2.1c0.6,1.1,1.3,2.2,2.1,3.2c0.2,0.3,0.4,0.5,0.6,0.8
			C200.3,181.4,199.9,180.7,199.5,180.1z M199.5,180.1c-0.5-0.7-1-1.4-1.5-2.1c0.6,1.1,1.3,2.2,2.1,3.2c0.2,0.3,0.4,0.5,0.6,0.8
			C200.3,181.4,199.9,180.7,199.5,180.1z M199.5,180.1c-0.5-0.7-1-1.4-1.5-2.1c0.6,1.1,1.3,2.2,2.1,3.2c0.2,0.3,0.4,0.5,0.6,0.8
			C200.3,181.4,199.9,180.7,199.5,180.1z"/>
	</g>
	<g id="XMLID_6_">
		<g id="XMLID_7_">
			<path class="st1" d="M233.1,185.1c2.5,2.8,4.4,5.9,5.6,9.3c1.2,3.4,1.8,7.3,1.8,11.7c0,10.6-3.9,19.4-11.8,26.3
				c-7.9,6.9-17.6,10.3-29.2,10.3c-5.4,0-10.7-0.8-16.1-2.5c-5.4-1.7-10-3.7-13.9-6.1l-3.6,6.2h-6.8l-1.2-41.2h6.9
				c1.4,5.1,3.1,9.7,5,13.8c1.9,4.1,4.4,7.9,7.5,11.5c2.9,3.3,6.4,6,10.3,8c3.9,2,8.5,3,13.7,3c3.9,0,7.3-0.5,10.2-1.5
				c2.9-1,5.3-2.5,7.1-4.3c1.8-1.9,3.1-4.1,4-6.6c0.9-2.5,1.3-5.4,1.3-8.7c0-4.8-1.4-9.3-4.1-13.5c-2.7-4.2-6.8-7.3-12.1-9.5
				c-3.7-1.5-7.9-3.1-12.6-4.9c-4.7-1.8-8.8-3.4-12.3-5c-6.8-3-12-7-15.8-12c-3.8-4.9-5.6-11.4-5.6-19.4c0-4.6,0.9-8.8,2.8-12.8
				s4.5-7.5,8-10.6c3.3-2.9,7.1-5.2,11.6-6.9s9.1-2.5,14-2.5c5.5,0,10.5,0.8,14.9,2.5s8.4,3.7,12,5.9l3.5-5.8h6.8l0.7,39.9h-6.9
				c-1.2-4.6-2.6-9-4.2-13.1c-1.6-4.2-3.6-8-6.1-11.4c-2.4-3.3-5.4-5.9-8.9-7.8c-3.5-1.9-7.8-2.9-12.9-2.9c-5.4,0-9.9,1.7-13.7,5.2
				c-3.8,3.4-5.7,7.7-5.7,12.6c0,5.2,1.2,9.5,3.6,12.9c2.4,3.4,6,6.2,10.6,8.4c4.1,2,8.2,3.7,12.2,5.1c4,1.4,7.8,3,11.6,4.6
				c3.4,1.5,6.7,3.1,9.8,5C228.1,180.4,230.8,182.6,233.1,185.1z"/>
		</g>
	</g>
</g>
<g>
	<path class="st1" d="M51.7,380.3c-2.3,0-4.5-0.4-6.6-1.1c-2-0.8-3.8-1.9-5.3-3.3c-1.5-1.4-2.7-3.2-3.5-5.2
		c-0.9-2.1-1.3-4.4-1.3-6.8c0-2.5,0.4-4.8,1.3-6.9c0.9-2.1,2.1-3.9,3.6-5.5c1.5-1.5,3.4-2.7,5.5-3.5c2.1-0.8,4.4-1.2,6.9-1.2
		c1.8,0,3.4,0.2,4.8,0.7c1.5,0.4,2.7,0.9,3.7,1.5l1.4-1.2h2l0.2,11.6h-2c-1.1-3.6-2.5-6.2-4-7.8c-1.6-1.7-3.5-2.5-5.7-2.5
		c-2.8,0-5,1.2-6.4,3.7c-1.5,2.5-2.2,6-2.2,10.4c0,2.5,0.2,4.7,0.8,6.5c0.5,1.8,1.2,3.2,2,4.3c0.9,1.1,1.9,2,3.1,2.5
		c1.2,0.5,2.5,0.8,3.9,0.8c2.1,0,4-0.6,5.6-1.7c1.6-1.1,3.1-2.9,4.5-5.2l1.9,1.2c-0.6,1.3-1.4,2.5-2.2,3.5c-0.8,1-1.8,1.9-2.9,2.7
		c-1.2,0.8-2.5,1.5-3.9,1.9C55.3,380.1,53.6,380.3,51.7,380.3z"/>
	<path class="st1" d="M104.6,349.3c-0.4,0-1.1,0.1-1.9,0.3c-0.8,0.2-1.5,0.4-2.1,0.8c-0.6,0.4-1,1-1.2,2c-0.2,1-0.3,2.4-0.3,4.4
		v11.9c0,3.5-1.2,6.3-3.5,8.4c-2.4,2.1-5.5,3.2-9.4,3.2c-4.5,0-8-1-10.5-3.1c-2.5-2.1-3.7-4.9-3.7-8.6v-16.3c0-0.5-0.1-1-0.3-1.3
		c-0.2-0.4-0.6-0.7-1.2-1c-0.4-0.2-0.9-0.4-1.4-0.5c-0.6-0.1-1-0.2-1.4-0.2v-1.7h16.7v1.7c-0.5,0-1,0.1-1.5,0.2
		c-0.5,0.1-1,0.2-1.5,0.4c-0.6,0.2-1,0.5-1.1,0.9c-0.2,0.4-0.3,0.9-0.3,1.4v16.1c0,3.2,0.7,5.5,2.1,6.9s3.4,2.2,6.1,2.2
		c2.6,0,4.6-0.8,6.1-2.4c1.5-1.6,2.2-3.9,2.2-7v-10.8c0-1.9-0.1-3.4-0.4-4.3c-0.3-1-0.7-1.6-1.2-2.1c-0.4-0.3-1.1-0.6-2-0.9
		s-1.6-0.4-2-0.5v-1.8h13.8V349.3z"/>
	<path class="st1" d="M119.6,380.3c-1.9,0-3.8-0.2-5.4-0.7s-3.1-1.1-4.3-1.7l-1.5,1.6h-1.9l-0.3-11.5h1.9c0.4,1.1,1,2.3,1.7,3.5
		s1.5,2.3,2.3,3.3c0.9,1,1.9,1.8,3.1,2.5c1.1,0.6,2.5,0.9,4,0.9c2,0,3.6-0.5,4.7-1.5c1.1-1,1.6-2.3,1.6-3.8c0-1.2-0.5-2.3-1.4-3.1
		s-2.3-1.6-4.3-2.2c-1.3-0.4-2.4-0.8-3.5-1.1c-1.1-0.3-2-0.7-3-1.1c-2.1-0.9-3.7-2.1-4.8-3.7c-1-1.6-1.6-3.4-1.6-5.3
		c0-1.2,0.3-2.4,0.8-3.6s1.3-2.2,2.4-3.1c1-0.9,2.3-1.6,3.8-2.1c1.5-0.5,3.2-0.8,5-0.8c1.8,0,3.4,0.2,5,0.7c1.5,0.5,2.8,1,3.6,1.5
		l1.4-1.3h2l0.2,10.9h-1.9c-0.4-1.2-1-2.4-1.6-3.6c-0.6-1.2-1.2-2.2-1.9-3.1c-0.7-0.9-1.6-1.6-2.5-2.1c-1-0.5-2.1-0.8-3.4-0.8
		c-1.6,0-2.9,0.5-4,1.4c-1,0.9-1.5,2-1.5,3.4c0,1.3,0.4,2.3,1.3,3.1c0.9,0.8,2.3,1.5,4.2,2.1c1.1,0.4,2.2,0.7,3.4,1.1
		c1.2,0.4,2.2,0.7,3.1,1.1c2.2,0.8,3.8,2,5,3.5c1.1,1.5,1.7,3.3,1.7,5.5c0,1.4-0.3,2.7-1,4c-0.6,1.3-1.5,2.4-2.6,3.2
		c-1.2,0.9-2.6,1.7-4.2,2.2C123.5,380,121.7,380.3,119.6,380.3z"/>
	<path class="st1" d="M165.7,356.7h-1.8c-0.5-1.4-1.2-2.8-2.2-4.4c-1-1.6-2-2.4-2.8-2.5c-0.5-0.1-1.1-0.1-1.8-0.2s-1.3-0.1-1.8-0.1
		h-1.1v25c0,0.5,0.1,1,0.3,1.4c0.2,0.4,0.6,0.7,1.1,1c0.3,0.1,0.9,0.3,1.6,0.4c0.7,0.1,1.3,0.2,1.9,0.3v1.8h-17.8v-1.8
		c0.4,0,1-0.1,1.8-0.2c0.8-0.1,1.3-0.2,1.6-0.3c0.6-0.2,1-0.6,1.2-1c0.2-0.4,0.3-0.9,0.3-1.4v-25.2h-1.1c-0.5,0-1.1,0-1.8,0.1
		c-0.7,0-1.3,0.1-1.8,0.2c-0.9,0.1-1.8,1-2.8,2.5c-1,1.6-1.8,3-2.2,4.4h-1.8v-9.1h30.9V356.7z"/>
	<path class="st1" d="M197,351.1c1.6,1.4,2.8,3.2,3.7,5.2c0.9,2,1.4,4.4,1.4,7c0,2.3-0.4,4.5-1.2,6.6c-0.8,2.1-1.9,3.9-3.4,5.4
		c-1.5,1.6-3.4,2.8-5.4,3.7c-2.1,0.9-4.6,1.3-7.4,1.3c-2.3,0-4.5-0.4-6.6-1.1s-3.9-1.9-5.5-3.3c-1.6-1.4-2.8-3.2-3.7-5.2
		c-0.9-2-1.4-4.3-1.4-6.8c0-2.6,0.4-5,1.3-7.1c0.9-2.1,2.1-3.9,3.7-5.4c1.5-1.5,3.4-2.6,5.5-3.4c2.1-0.8,4.4-1.2,6.8-1.2
		c2.4,0,4.6,0.4,6.7,1.2C193.6,348.6,195.4,349.7,197,351.1z M191.2,373.9c0.7-1.4,1.2-2.9,1.5-4.6c0.3-1.7,0.4-3.7,0.4-5.8
		c0-1.8-0.1-3.6-0.4-5.4c-0.3-1.7-0.7-3.3-1.3-4.7c-0.6-1.4-1.5-2.5-2.6-3.3c-1.1-0.8-2.4-1.2-4-1.2c-2.7,0-4.8,1.3-6.2,3.9
		c-1.4,2.6-2.1,6.2-2.1,10.9c0,2,0.2,3.9,0.5,5.6c0.3,1.8,0.8,3.3,1.4,4.6c0.7,1.3,1.5,2.4,2.6,3.1c1,0.7,2.3,1.1,3.8,1.1
		c1.5,0,2.8-0.4,3.8-1.1C189.7,376.3,190.6,375.2,191.2,373.9z"/>
	<path class="st1" d="M249,379.4h-17.3v-1.8c0.5,0,1.1-0.1,1.9-0.2c0.7-0.1,1.2-0.2,1.5-0.3c0.6-0.2,1-0.5,1.2-0.9
		c0.2-0.4,0.4-0.9,0.4-1.5v-23.8l-11,28h-2.8c-0.1-0.5-0.5-1.5-1-2.9c-0.5-1.5-1-2.6-1.3-3.5l-8.1-21.9v19.4c0,1.9,0.1,3.3,0.4,4.2
		c0.2,1,0.6,1.7,1.2,2.1c0.4,0.3,1,0.6,2,0.9c1,0.3,1.6,0.4,2,0.5v1.8h-13.7v-1.8c0.4,0,1-0.1,1.8-0.3c0.8-0.2,1.5-0.4,2.1-0.8
		c0.6-0.4,1-1.1,1.2-2.1c0.2-1,0.3-2.4,0.3-4.3v-15.8c0-1-0.1-1.8-0.4-2.4c-0.2-0.6-0.6-1.1-1.1-1.5c-0.6-0.5-1.2-0.8-1.8-0.9
		s-1.3-0.2-1.9-0.3v-1.8h14.7l7.9,21l6.6-17c0.2-0.6,0.4-1.4,0.7-2.2c0.2-0.9,0.3-1.4,0.3-1.7H249v1.8c-0.5,0-1,0.1-1.5,0.2
		c-0.5,0.1-1,0.2-1.5,0.4c-0.6,0.2-1,0.5-1.2,0.9c-0.2,0.4-0.3,0.9-0.3,1.4v22.6c0,0.5,0.1,1,0.3,1.4c0.2,0.4,0.6,0.7,1.2,1
		c0.3,0.1,0.8,0.3,1.5,0.4c0.7,0.1,1.2,0.2,1.6,0.2V379.4z"/>
	<path class="st1" d="M280.7,380.3c-2.3,0-4.5-0.4-6.6-1.1c-2-0.8-3.8-1.9-5.3-3.3c-1.5-1.4-2.7-3.2-3.5-5.2
		c-0.9-2.1-1.3-4.4-1.3-6.8c0-2.5,0.4-4.8,1.3-6.9c0.9-2.1,2.1-3.9,3.6-5.5c1.5-1.5,3.4-2.7,5.5-3.5c2.1-0.8,4.4-1.2,6.9-1.2
		c1.8,0,3.4,0.2,4.8,0.7c1.5,0.4,2.7,0.9,3.7,1.5l1.4-1.2h2l0.2,11.6h-2c-1.1-3.6-2.5-6.2-4-7.8c-1.6-1.7-3.5-2.5-5.7-2.5
		c-2.8,0-5,1.2-6.4,3.7c-1.5,2.5-2.2,6-2.2,10.4c0,2.5,0.2,4.7,0.8,6.5c0.5,1.8,1.2,3.2,2,4.3c0.9,1.1,1.9,2,3.1,2.5
		c1.2,0.5,2.5,0.8,3.9,0.8c2.1,0,4-0.6,5.6-1.7c1.6-1.1,3.1-2.9,4.5-5.2l1.9,1.2c-0.6,1.3-1.4,2.5-2.2,3.5c-0.8,1-1.8,1.9-2.9,2.7
		c-1.2,0.8-2.5,1.5-3.9,1.9C284.3,380.1,282.7,380.3,280.7,380.3z"/>
	<path class="st1" d="M333.6,349.3c-0.4,0-1.1,0.1-1.9,0.3c-0.8,0.2-1.5,0.4-2.1,0.8c-0.6,0.4-1,1-1.2,2c-0.2,1-0.3,2.4-0.3,4.4
		v11.9c0,3.5-1.2,6.3-3.5,8.4c-2.4,2.1-5.5,3.2-9.4,3.2c-4.5,0-8-1-10.5-3.1c-2.5-2.1-3.7-4.9-3.7-8.6v-16.3c0-0.5-0.1-1-0.3-1.3
		c-0.2-0.4-0.6-0.7-1.2-1c-0.4-0.2-0.9-0.4-1.4-0.5c-0.6-0.1-1-0.2-1.4-0.2v-1.7h16.7v1.7c-0.5,0-1,0.1-1.5,0.2
		c-0.5,0.1-1,0.2-1.5,0.4c-0.6,0.2-1,0.5-1.1,0.9c-0.2,0.4-0.3,0.9-0.3,1.4v16.1c0,3.2,0.7,5.5,2.1,6.9s3.4,2.2,6.1,2.2
		c2.6,0,4.6-0.8,6.1-2.4c1.5-1.6,2.2-3.9,2.2-7v-10.8c0-1.9-0.1-3.4-0.4-4.3c-0.3-1-0.7-1.6-1.2-2.1c-0.4-0.3-1.1-0.6-2-0.9
		c-1-0.3-1.6-0.4-2-0.5v-1.8h13.8V349.3z"/>
	<path class="st1" d="M364.9,356.7h-1.8c-0.5-1.4-1.2-2.8-2.2-4.4c-1-1.6-2-2.4-2.8-2.5c-0.5-0.1-1.1-0.1-1.8-0.2s-1.3-0.1-1.8-0.1
		h-1.1v25c0,0.5,0.1,1,0.3,1.4c0.2,0.4,0.6,0.7,1.1,1c0.3,0.1,0.9,0.3,1.6,0.4c0.7,0.1,1.3,0.2,1.9,0.3v1.8h-17.8v-1.8
		c0.4,0,1-0.1,1.8-0.2c0.8-0.1,1.3-0.2,1.6-0.3c0.6-0.2,1-0.6,1.2-1s0.3-0.9,0.3-1.4v-25.2h-1.1c-0.5,0-1.1,0-1.8,0.1
		s-1.3,0.1-1.8,0.2c-0.9,0.1-1.8,1-2.8,2.5c-1,1.6-1.8,3-2.2,4.4H334v-9.1h30.9V356.7z"/>
	<path class="st1" d="M59.7,451c-3.4,0-6.5-0.4-9.5-1.3s-5.4-1.8-7.4-3l-2.7,2.7h-3.3l-0.5-20h3.4c0.8,1.9,1.7,3.9,2.9,6
		s2.5,4,4.1,5.7c1.6,1.7,3.4,3.2,5.3,4.3c2,1.1,4.3,1.6,6.9,1.6c3.5,0,6.3-0.9,8.1-2.6c1.9-1.7,2.8-3.9,2.8-6.5c0-2.2-0.8-4-2.4-5.5
		c-1.6-1.5-4.1-2.7-7.4-3.8c-2.2-0.7-4.2-1.4-6-2s-3.6-1.2-5.2-1.8c-3.7-1.5-6.5-3.6-8.3-6.4c-1.8-2.8-2.7-5.9-2.7-9.3
		c0-2.2,0.5-4.2,1.4-6.2s2.3-3.8,4.1-5.4c1.7-1.5,3.9-2.7,6.6-3.6c2.7-0.9,5.6-1.4,8.8-1.4c3.1,0,6,0.4,8.6,1.3
		c2.7,0.9,4.8,1.7,6.3,2.6l2.4-2.3h3.4l0.3,18.9h-3.4c-0.8-2-1.7-4.1-2.8-6.2s-2.2-3.9-3.3-5.3c-1.3-1.5-2.7-2.7-4.4-3.6
		c-1.7-0.9-3.6-1.4-5.9-1.4c-2.8,0-5.1,0.8-6.9,2.4c-1.8,1.6-2.7,3.6-2.7,5.9c0,2.2,0.8,4,2.3,5.4c1.5,1.4,4,2.6,7.2,3.7
		c1.9,0.7,3.9,1.3,5.9,2c2,0.7,3.8,1.3,5.4,1.9c3.8,1.5,6.6,3.5,8.6,6c2,2.6,2.9,5.8,2.9,9.6c0,2.4-0.6,4.7-1.7,7
		c-1.1,2.2-2.6,4.1-4.5,5.6c-2.1,1.6-4.5,2.9-7.2,3.8S63.3,451,59.7,451z"/>
	<path class="st1" d="M156,449.4h-30v-3c0.7-0.1,1.6-0.1,2.9-0.2c1.2-0.1,2.1-0.3,2.6-0.5c1-0.4,1.6-0.9,2-1.5
		c0.4-0.6,0.5-1.5,0.5-2.4v-19.1h-23.7v18.7c0,0.9,0.2,1.7,0.6,2.4c0.4,0.7,1,1.2,1.9,1.6c0.5,0.2,1.3,0.4,2.5,0.7
		c1.2,0.2,2.2,0.4,2.9,0.4v3h-30v-3c0.7,0,1.6-0.1,2.9-0.3c1.3-0.1,2.2-0.3,2.8-0.5c0.9-0.3,1.6-0.9,2-1.5c0.4-0.7,0.5-1.5,0.5-2.4
		v-39.2c0-0.9-0.2-1.7-0.5-2.3c-0.3-0.6-1-1.2-2-1.6c-0.8-0.3-1.7-0.6-3-0.9c-1.2-0.3-2.1-0.4-2.7-0.5v-3h30v3
		c-0.8,0.1-1.8,0.2-2.9,0.4c-1.1,0.2-2,0.4-2.6,0.6c-1,0.3-1.7,0.9-2,1.6c-0.3,0.7-0.5,1.5-0.5,2.4v16.6H134v-16.2
		c0-0.9-0.2-1.7-0.5-2.3c-0.3-0.6-1-1.2-2-1.6c-0.7-0.3-1.6-0.6-2.7-0.9c-1.1-0.3-2-0.4-2.7-0.5v-3h30v3c-0.8,0.1-1.8,0.2-2.8,0.3
		c-1,0.2-2,0.4-2.8,0.6c-1,0.3-1.7,0.9-2,1.6c-0.3,0.7-0.5,1.5-0.5,2.4v39.3c0,0.9,0.2,1.7,0.5,2.4c0.3,0.7,1,1.2,2,1.6
		c0.6,0.3,1.5,0.5,2.7,0.7c1.2,0.2,2.2,0.3,2.9,0.4V449.4z"/>
	<path class="st1" d="M191.9,449.4h-30.7v-3c0.7-0.1,1.7-0.1,3.1-0.2c1.4-0.1,2.3-0.3,2.8-0.5c1-0.4,1.6-0.9,2-1.5
		c0.4-0.6,0.5-1.5,0.5-2.4v-39.3c0-0.9-0.2-1.7-0.5-2.3c-0.3-0.7-1-1.2-2-1.6c-0.6-0.3-1.5-0.5-2.8-0.8c-1.2-0.3-2.3-0.5-3.2-0.6v-3
		h30.7v3c-0.8,0.1-1.8,0.2-2.9,0.3c-1.2,0.1-2.2,0.3-3,0.6c-1,0.3-1.7,0.9-2,1.6c-0.3,0.7-0.5,1.5-0.5,2.4v39.3
		c0,0.9,0.2,1.7,0.5,2.4s1,1.2,2,1.6c0.5,0.2,1.5,0.5,2.7,0.7c1.3,0.2,2.3,0.4,3.2,0.4V449.4z"/>
	<path class="st1" d="M260.7,449.4h-21.3c-3.7-5.6-6.7-10.1-9.2-13.4c-2.4-3.3-5.5-7.2-9.1-11.6h-2.1v16.8c0,0.9,0.2,1.7,0.5,2.4
		c0.4,0.7,1,1.2,2,1.6c0.5,0.2,1.3,0.4,2.3,0.6c1.1,0.2,2,0.4,2.7,0.4v3h-29.6v-3c0.8-0.1,1.8-0.2,3-0.3c1.2-0.1,2.1-0.3,2.6-0.5
		c1-0.4,1.7-0.9,2-1.6c0.3-0.6,0.5-1.5,0.5-2.4v-39.1c0-0.9-0.1-1.7-0.4-2.3c-0.3-0.6-1-1.2-2.1-1.6c-0.8-0.3-1.8-0.6-2.9-0.9
		s-2-0.4-2.7-0.5v-3h31.1c7,0,12.2,1.1,15.8,3.3c3.6,2.2,5.4,5.5,5.4,9.9c0,3.9-1.1,7-3.3,9.4c-2.2,2.4-5.6,4.2-10.2,5.5
		c1.8,2.3,3.8,4.9,6.2,8c2.4,3,4.8,6.1,7.4,9.3c0.8,1,1.9,2.3,3.3,3.7c1.4,1.5,2.6,2.4,3.7,2.7c0.6,0.2,1.4,0.3,2.3,0.5
		c0.9,0.1,1.6,0.2,2,0.2V449.4z M234.1,408.2c0-3.7-1-6.4-3.1-8.1c-2.1-1.7-5-2.6-8.8-2.6h-3.1v23.2h3c3.8,0,6.8-1,8.9-3
		C233.1,415.7,234.1,412.6,234.1,408.2z"/>
	<path class="st1" d="M312.4,409.9h-3c-0.8-2.4-2.1-4.9-3.9-7.6c-1.8-2.7-3.4-4.2-4.9-4.4c-0.8-0.1-1.9-0.2-3.1-0.3
		s-2.3-0.1-3.2-0.1h-1.8V441c0,0.9,0.2,1.8,0.5,2.5c0.3,0.7,1,1.3,2,1.7c0.6,0.2,1.5,0.5,2.8,0.7c1.3,0.2,2.3,0.4,3.2,0.5v3h-30.9
		v-3c0.8-0.1,1.8-0.2,3.2-0.3c1.4-0.1,2.3-0.3,2.8-0.5c1-0.4,1.7-1,2-1.7c0.3-0.7,0.5-1.5,0.5-2.5v-43.9h-1.8c-0.9,0-1.9,0-3.2,0.1
		c-1.2,0.1-2.2,0.2-3.1,0.3c-1.5,0.2-3.2,1.7-4.9,4.4c-1.8,2.7-3.1,5.2-3.9,7.6h-3V394h53.7V409.9z"/>
	<path class="st1" d="M338.8,451c-3.4,0-6.5-0.4-9.5-1.3s-5.4-1.8-7.4-3l-2.7,2.7h-3.3l-0.5-20h3.4c0.8,1.9,1.7,3.9,2.9,6
		s2.5,4,4.1,5.7c1.6,1.7,3.4,3.2,5.3,4.3c2,1.1,4.3,1.6,6.9,1.6c3.5,0,6.3-0.9,8.1-2.6c1.9-1.7,2.8-3.9,2.8-6.5c0-2.2-0.8-4-2.4-5.5
		c-1.6-1.5-4.1-2.7-7.4-3.8c-2.2-0.7-4.2-1.4-6-2s-3.6-1.2-5.2-1.8c-3.7-1.5-6.5-3.6-8.3-6.4c-1.8-2.8-2.7-5.9-2.7-9.3
		c0-2.2,0.5-4.2,1.4-6.2s2.3-3.8,4.1-5.4c1.7-1.5,3.9-2.7,6.6-3.6c2.7-0.9,5.6-1.4,8.8-1.4c3.1,0,6,0.4,8.6,1.3
		c2.7,0.9,4.8,1.7,6.3,2.6l2.4-2.3h3.4l0.3,18.9h-3.4c-0.8-2-1.7-4.1-2.8-6.2s-2.2-3.9-3.3-5.3c-1.3-1.5-2.7-2.7-4.4-3.6
		c-1.7-0.9-3.6-1.4-5.9-1.4c-2.8,0-5.1,0.8-6.9,2.4c-1.8,1.6-2.7,3.6-2.7,5.9c0,2.2,0.8,4,2.3,5.4c1.5,1.4,4,2.6,7.2,3.7
		c1.9,0.7,3.9,1.3,5.9,2c2,0.7,3.8,1.3,5.4,1.9c3.8,1.5,6.6,3.5,8.6,6c2,2.6,2.9,5.8,2.9,9.6c0,2.4-0.6,4.7-1.7,7
		c-1.1,2.2-2.6,4.1-4.5,5.6c-2.1,1.6-4.5,2.9-7.2,3.8S342.5,451,338.8,451z"/>
</g>
</svg>
